<svg id="Capa_1" enable-background="new 0 0 509.752 509.752" height="512" viewBox="0 0 509.752 509.752" width="512" xmlns="http://www.w3.org/2000/svg"><g id="XMLID_940_"><path id="XMLID_966_" d="m417.546 142.194-.536 59.87h-22.378l-52.874-59.747h-71.882v-23.328h70v-30h-170v30h70v23.328h-76.79l-34.591 40.513h-70.084v81.237h-28.411v-58.536h-30v149.328h30v-60.792h28.411v85.237h70.536l35.485 37.559 177.252-.104 53.345-59.255h21.973l.535 63.259h92.215v-277.81zm62.206 248.569h-32.467l-.535-63.259h-65.078l-53.353 59.263-150.966.089-35.479-37.551h-53.463v-136.475h53.916l34.591-40.513h151.328l52.874 59.747h65.622l.534-59.624 32.476.267z"/><path id="XMLID_967_" d="m241.502 202.482h30v89.182h-30z"/><path id="XMLID_968_" d="m241.502 318.991h30v32.82h-30z"/></g></svg>